<svg xmlns="http://www.w3.org/2000/svg" xmlns:xlink="http://www.w3.org/1999/xlink" width="24" height="24" viewBox="0 0 24 24" fill="none"><path d="M14 4.24024C14.0001 4.19516 13.9989 4.15012 13.9963 4.10511C13.9937 4.06011 13.9898 4.01523 13.9845 3.97046C13.9792 3.9257 13.9725 3.88113 13.9646 3.83677C13.9566 3.79241 13.9473 3.74831 13.9367 3.7045C13.9261 3.66071 13.9142 3.61725 13.901 3.57415C13.8877 3.53106 13.8732 3.4884 13.8574 3.44619C13.8416 3.40396 13.8246 3.36226 13.8063 3.32105C13.788 3.27987 13.7685 3.23925 13.7478 3.19923C13.727 3.15921 13.7051 3.11984 13.682 3.08114C13.6589 3.04244 13.6346 3.00447 13.6093 2.96721C13.5839 2.92996 13.5574 2.89351 13.5298 2.85786C13.5022 2.8222 13.4736 2.7874 13.4439 2.75347C13.4142 2.71953 13.3836 2.68651 13.352 2.65442C13.3203 2.62232 13.2877 2.59121 13.2542 2.56108C13.2207 2.53094 13.1863 2.50184 13.151 2.47378C13.1157 2.44571 13.0797 2.41873 13.0428 2.39283C13.0059 2.36693 12.9682 2.34216 12.9298 2.31852C12.8915 2.29488 12.8524 2.27242 12.8127 2.25114C12.773 2.22984 12.7326 2.20976 12.6917 2.1909C12.6508 2.17204 12.6093 2.15442 12.5673 2.13805C12.5253 2.12167 12.4828 2.10658 12.4399 2.09276C12.397 2.07893 12.3537 2.06641 12.3101 2.05519C12.2664 2.04397 12.2225 2.03407 12.1782 2.0255C12.1339 2.01692 12.0895 2.00967 12.0448 2.00377C12.0001 1.99786 11.9552 1.9933 11.9103 1.9901C11.8654 1.98688 11.8204 1.98502 11.7753 1.98452C11.7302 1.98401 11.6851 1.98486 11.6401 1.98706C11.5951 1.98926 11.5502 1.99282 11.5054 1.99772C11.4605 2.00262 11.4159 2.00886 11.3715 2.01645C11.327 2.02403 11.2829 2.03294 11.239 2.04318C11.1951 2.05341 11.1515 2.06496 11.1083 2.07782C11.0651 2.09067 11.0223 2.10481 10.98 2.12024L4.14001 4.60023C4.06228 4.62848 3.98574 4.65966 3.91039 4.69374C3.83504 4.72783 3.7611 4.76474 3.68857 4.80447C3.61604 4.8442 3.54513 4.88665 3.47584 4.93179C3.40654 4.97693 3.33907 5.02466 3.27343 5.07495C3.20778 5.12526 3.14415 5.17797 3.08253 5.23312C3.0209 5.28829 2.96147 5.34572 2.90423 5.4054C2.84699 5.4651 2.79211 5.52688 2.73959 5.59075C2.68706 5.65463 2.63705 5.72042 2.58955 5.78813C2.54205 5.85582 2.4972 5.92525 2.455 5.99637C2.4128 6.06748 2.37337 6.14011 2.33671 6.21424C2.30006 6.28838 2.26628 6.3638 2.23538 6.44052C2.20448 6.51722 2.17655 6.59501 2.15159 6.67384C2.12662 6.7527 2.1047 6.83238 2.08582 6.91289C2.06694 6.9934 2.05115 7.07452 2.03847 7.15625C2.02578 7.23797 2.01623 7.32006 2.00981 7.4025C2.00339 7.48496 2.00012 7.56753 2.00001 7.65024L2.00001 13.7603C1.99989 13.8053 2.00112 13.8504 2.00372 13.8954C2.0063 13.9404 2.01024 13.9853 2.01553 14.0301C2.02081 14.0748 2.02744 14.1194 2.03541 14.1638C2.04337 14.2081 2.05266 14.2522 2.06328 14.296C2.0739 14.3398 2.08582 14.3832 2.09905 14.4264C2.11227 14.4694 2.12678 14.5121 2.14257 14.5544C2.15836 14.5966 2.17541 14.6383 2.19371 14.6795C2.212 14.7207 2.23152 14.7613 2.25226 14.8013C2.273 14.8413 2.29492 14.8806 2.31802 14.9194C2.34113 14.9581 2.36537 14.9961 2.39076 15.0333C2.41615 15.0705 2.44263 15.107 2.4702 15.1427C2.49778 15.1783 2.5264 15.2131 2.55607 15.2471C2.58574 15.281 2.61639 15.314 2.64805 15.3461C2.6797 15.3782 2.71229 15.4093 2.74582 15.4395C2.77934 15.4696 2.81374 15.4987 2.84901 15.5268C2.88428 15.5548 2.92036 15.5818 2.95726 15.6077C2.99415 15.6336 3.03179 15.6584 3.07017 15.682C3.10855 15.7056 3.1476 15.7281 3.18734 15.7494C3.22707 15.7706 3.26741 15.7907 3.30835 15.8096C3.34929 15.8284 3.39076 15.8461 3.43276 15.8625C3.47475 15.8789 3.5172 15.894 3.56011 15.9078C3.60301 15.9216 3.64629 15.9341 3.68995 15.9453C3.73361 15.9565 3.77756 15.9664 3.82182 15.975C3.86607 15.9836 3.91054 15.9908 3.95523 15.9968C3.99991 16.0026 4.04474 16.0072 4.08971 16.0104C4.13467 16.0136 4.17968 16.0155 4.22476 16.016C4.26983 16.0165 4.31488 16.0157 4.35991 16.0135C4.40493 16.0113 4.44984 16.0077 4.49465 16.0028C4.53946 15.9979 4.58408 15.9917 4.62852 15.9841C4.67295 15.9765 4.71712 15.9676 4.76102 15.9574C4.80491 15.9471 4.84846 15.9355 4.89167 15.9227C4.93487 15.9098 4.97765 15.8957 5.02001 15.8803L12.85 13.0403C13.54 12.7903 14 12.1403 14 11.4002L14 4.24024Z"   fill="url(#linear_fill_lLg0eDcEeBuMxHumaGRHp)" ></path><path d="M18 7.24024C18.0001 7.19516 17.9989 7.15013 17.9963 7.10511C17.9937 7.06011 17.9898 7.01523 17.9845 6.97046C17.9792 6.9257 17.9725 6.88113 17.9646 6.83677C17.9566 6.79241 17.9473 6.74831 17.9367 6.7045C17.9261 6.66071 17.9142 6.61726 17.901 6.57415C17.8877 6.53106 17.8732 6.48841 17.8574 6.44619C17.8417 6.40396 17.8246 6.36227 17.8063 6.32106C17.788 6.27987 17.7685 6.23925 17.7478 6.19923C17.727 6.15921 17.7051 6.11984 17.682 6.08113C17.6589 6.04244 17.6346 6.00447 17.6093 5.96722C17.5839 5.92996 17.5574 5.89351 17.5298 5.85786C17.5022 5.8222 17.4736 5.7874 17.4439 5.75347C17.4142 5.71953 17.3836 5.68651 17.352 5.65442C17.3203 5.62232 17.2877 5.59121 17.2542 5.56108C17.2207 5.53094 17.1863 5.50184 17.151 5.47378C17.1157 5.44571 17.0797 5.41873 17.0428 5.39283C17.0059 5.36693 16.9682 5.34216 16.9298 5.31853C16.8915 5.29489 16.8524 5.27242 16.8127 5.25114C16.773 5.22984 16.7326 5.20977 16.6917 5.19091C16.6508 5.17204 16.6093 5.15442 16.5673 5.13805C16.5253 5.12167 16.4828 5.10658 16.4399 5.09276C16.397 5.07894 16.3537 5.06642 16.3101 5.0552C16.2664 5.04398 16.2225 5.03408 16.1782 5.0255C16.1339 5.01692 16.0895 5.00967 16.0448 5.00377C16.0001 4.99786 15.9552 4.9933 15.9103 4.9901C15.8654 4.98688 15.8204 4.98502 15.7753 4.98452C15.7302 4.98401 15.6851 4.98486 15.6401 4.98707C15.5951 4.98927 15.5502 4.99282 15.5054 4.99772C15.4605 5.00262 15.4159 5.00886 15.3715 5.01645C15.327 5.02403 15.2829 5.03294 15.239 5.04318C15.1951 5.05341 15.1515 5.06496 15.1083 5.07782C15.0651 5.09067 15.0223 5.10481 14.98 5.12024L8.14001 7.60023C8.06228 7.62848 7.98574 7.65966 7.9104 7.69374C7.83504 7.72783 7.7611 7.76474 7.68858 7.80447C7.61604 7.8442 7.54513 7.88665 7.47584 7.93179C7.40655 7.97693 7.33908 8.02466 7.27343 8.07495C7.20778 8.12526 7.14415 8.17797 7.08253 8.23312C7.0209 8.28829 6.96147 8.34571 6.90423 8.4054C6.84699 8.4651 6.79211 8.52687 6.73959 8.59076C6.68706 8.65464 6.63705 8.72044 6.58955 8.78813C6.54205 8.85583 6.4972 8.92525 6.455 8.99636C6.4128 9.06748 6.37337 9.14011 6.33671 9.21424C6.30006 9.28839 6.26628 9.3638 6.23538 9.44052C6.20448 9.51723 6.17655 9.59501 6.15159 9.67385C6.12662 9.7527 6.1047 9.83237 6.08582 9.91289C6.06694 9.99339 6.05116 10.0745 6.03847 10.1562C6.02578 10.238 6.01623 10.3201 6.00981 10.4025C6.00339 10.4849 6.00012 10.5675 6.00001 10.6502L6.00001 16.7603C5.99989 16.8053 6.00112 16.8504 6.00372 16.8954C6.0063 16.9404 6.01024 16.9853 6.01553 17.0301C6.02081 17.0748 6.02744 17.1194 6.03541 17.1638C6.04337 17.2081 6.05267 17.2522 6.06329 17.296C6.0739 17.3398 6.08582 17.3832 6.09905 17.4264C6.11228 17.4694 6.12678 17.5121 6.14257 17.5544C6.15836 17.5966 6.17541 17.6383 6.19371 17.6795C6.212 17.7207 6.23152 17.7613 6.25226 17.8013C6.273 17.8413 6.29492 17.8806 6.31802 17.9194C6.34113 17.9581 6.36537 17.9961 6.39076 18.0333C6.41614 18.0705 6.44263 18.107 6.4702 18.1427C6.49778 18.1783 6.5264 18.2131 6.55607 18.2471C6.58574 18.281 6.6164 18.314 6.64805 18.3461C6.6797 18.3782 6.71229 18.4093 6.74582 18.4395C6.77934 18.4696 6.81374 18.4987 6.84901 18.5268C6.88428 18.5548 6.92036 18.5818 6.95726 18.6077C6.99415 18.6336 7.03179 18.6584 7.07017 18.682C7.10855 18.7056 7.14761 18.7281 7.18734 18.7494C7.22707 18.7706 7.26741 18.7907 7.30835 18.8096C7.34929 18.8284 7.39076 18.8461 7.43276 18.8625C7.47475 18.8788 7.5172 18.8939 7.56011 18.9078C7.60301 18.9216 7.6463 18.9341 7.68996 18.9453C7.73361 18.9565 7.77757 18.9664 7.82182 18.975C7.86607 18.9836 7.91054 18.9908 7.95523 18.9968C7.99992 19.0026 8.04475 19.0072 8.08971 19.0104C8.13467 19.0136 8.17969 19.0155 8.22476 19.016C8.26983 19.0165 8.31488 19.0157 8.35991 19.0135C8.40493 19.0113 8.44984 19.0077 8.49465 19.0028C8.53946 18.9979 8.58408 18.9917 8.62852 18.9841C8.67295 18.9765 8.71712 18.9676 8.76102 18.9574C8.80491 18.9471 8.84846 18.9355 8.89167 18.9227C8.93488 18.9098 8.97765 18.8957 9.02001 18.8803L16.85 16.0403C17.54 15.7903 18 15.1403 18 14.4002L18 7.24024Z"   fill="url(#linear_fill_GH1TeAe0dL-DgakqPLssS)" ></path><path d="M22 10.2402C22.0001 10.1952 21.9989 10.1501 21.9963 10.1051C21.9937 10.0601 21.9898 10.0152 21.9845 9.97046C21.9792 9.9257 21.9725 9.88113 21.9646 9.83677C21.9567 9.79239 21.9474 9.74831 21.9367 9.7045C21.9261 9.6607 21.9142 9.61724 21.901 9.57415C21.8877 9.53106 21.8732 9.48841 21.8574 9.44619C21.8417 9.40396 21.8246 9.36226 21.8063 9.32106C21.788 9.27987 21.7685 9.23925 21.7478 9.19923C21.727 9.15921 21.7051 9.11985 21.682 9.08115C21.6589 9.04243 21.6346 9.00447 21.6093 8.96722C21.5839 8.92996 21.5574 8.89351 21.5298 8.85786C21.5022 8.8222 21.4736 8.7874 21.4439 8.75347C21.4142 8.71953 21.3836 8.68651 21.352 8.65442C21.3203 8.62232 21.2877 8.59121 21.2542 8.56108C21.2207 8.53094 21.1863 8.50184 21.151 8.47378C21.1157 8.44571 21.0797 8.41873 21.0428 8.39283C21.0059 8.36693 20.9682 8.34216 20.9298 8.31852C20.8915 8.29488 20.8524 8.27242 20.8127 8.25114C20.773 8.22984 20.7326 8.20976 20.6917 8.1909C20.6508 8.17204 20.6093 8.15442 20.5673 8.13805C20.5253 8.12167 20.4828 8.10658 20.4399 8.09276C20.397 8.07893 20.3537 8.06641 20.3101 8.0552C20.2664 8.04398 20.2225 8.03408 20.1782 8.0255C20.1339 8.01692 20.0895 8.00967 20.0448 8.00377C20.0001 7.99786 19.9552 7.9933 19.9103 7.9901C19.8654 7.98688 19.8204 7.98502 19.7753 7.98452C19.7302 7.98401 19.6851 7.98486 19.6401 7.98707C19.5951 7.98927 19.5502 7.99282 19.5054 7.99772C19.4605 8.00262 19.4159 8.00886 19.3715 8.01645C19.327 8.02403 19.2829 8.03294 19.239 8.04318C19.1951 8.05341 19.1515 8.06496 19.1083 8.07782C19.0651 8.09067 19.0223 8.10481 18.98 8.12024L12.14 10.6002C12.0623 10.6285 11.9857 10.6597 11.9104 10.6937C11.8351 10.7278 11.7611 10.7647 11.6886 10.8044C11.6161 10.8442 11.5451 10.8866 11.4758 10.9318C11.4065 10.977 11.3391 11.0247 11.2734 11.0749C11.2078 11.1253 11.1442 11.178 11.0825 11.2331C11.0209 11.2883 10.9615 11.3457 10.9042 11.4054C10.847 11.4651 10.7921 11.5269 10.7396 11.5907C10.6871 11.6546 10.637 11.7204 10.5895 11.7881C10.542 11.8558 10.4972 11.9252 10.455 11.9963C10.4128 12.0675 10.3734 12.1401 10.3367 12.2142C10.3 12.2884 10.2663 12.3638 10.2354 12.4405C10.2045 12.5172 10.1765 12.595 10.1516 12.6738C10.1266 12.7527 10.1047 12.8324 10.0858 12.9129C10.0669 12.9934 10.0512 13.0745 10.0385 13.1562C10.0258 13.238 10.0162 13.3201 10.0098 13.4025C10.0034 13.4849 10.0001 13.5675 10 13.6502L10 19.7603C9.99989 19.8053 10.0011 19.8504 10.0037 19.8954C10.0063 19.9404 10.0102 19.9853 10.0155 20.0301C10.0208 20.0748 10.0275 20.1194 10.0354 20.1638C10.0434 20.2081 10.0527 20.2522 10.0633 20.296C10.0739 20.3398 10.0858 20.3832 10.099 20.4264C10.1123 20.4694 10.1268 20.5121 10.1426 20.5544C10.1584 20.5966 10.1754 20.6383 10.1937 20.6795C10.212 20.7207 10.2315 20.7613 10.2522 20.8013C10.273 20.8413 10.2949 20.8806 10.318 20.9194C10.3411 20.9581 10.3654 20.9961 10.3907 21.0333C10.4161 21.0705 10.4426 21.107 10.4702 21.1427C10.4978 21.1783 10.5264 21.2131 10.5561 21.2471C10.5858 21.281 10.6164 21.314 10.648 21.3461C10.6797 21.3782 10.7123 21.4093 10.7458 21.4395C10.7793 21.4696 10.8137 21.4987 10.849 21.5268C10.8843 21.5548 10.9203 21.5818 10.9572 21.6077C10.9941 21.6336 11.0318 21.6584 11.0702 21.682C11.1085 21.7056 11.1476 21.7281 11.1873 21.7494C11.227 21.7706 11.2674 21.7907 11.3083 21.8096C11.3492 21.8284 11.3907 21.8461 11.4327 21.8625C11.4747 21.8789 11.5172 21.894 11.5601 21.9078C11.603 21.9216 11.6463 21.9341 11.6899 21.9453C11.7336 21.9565 11.7775 21.9664 11.8218 21.975C11.8661 21.9836 11.9105 21.9908 11.9552 21.9968C11.9999 22.0026 12.0448 22.0072 12.0897 22.0104C12.1346 22.0136 12.1797 22.0155 12.2248 22.016C12.2699 22.0165 12.3149 22.0157 12.3599 22.0135C12.4049 22.0113 12.4498 22.0077 12.4946 22.0028C12.5395 21.9979 12.5841 21.9917 12.6285 21.9841C12.673 21.9765 12.7171 21.9676 12.761 21.9574C12.8049 21.9471 12.8485 21.9355 12.8917 21.9227C12.9349 21.9098 12.9777 21.8957 13.02 21.8803L20.85 19.0403C21.54 18.7903 22 18.1403 22 17.4002L22 10.2402Z"   fill="url(#linear_fill_fqhhvZAPXaaa6PyVUwP0R)" ></path><defs><linearGradient id="linear_fill_lLg0eDcEeBuMxHumaGRHp" x1="2.43017578125" y1="4.62109375" x2="12.0498046875" y2="13.169921875" gradientUnits="userSpaceOnUse"><stop offset="0" stop-color="#0078D4"  /><stop offset="1" stop-color="#1B44B1"  /></linearGradient><linearGradient id="linear_fill_GH1TeAe0dL-DgakqPLssS" x1="6.43017578125" y1="7.62109375" x2="16.0498046875" y2="16.169921875" gradientUnits="userSpaceOnUse"><stop offset="0" stop-color="#0FAFFF"  /><stop offset="1" stop-color="#2764E7"  /></linearGradient><linearGradient id="linear_fill_fqhhvZAPXaaa6PyVUwP0R" x1="10.43017578125" y1="10.62109375" x2="20.0498046875" y2="19.169921875" gradientUnits="userSpaceOnUse"><stop offset="0" stop-color="#6CE0FF"  /><stop offset="1" stop-color="#58AAFE"  /></linearGradient></defs></svg>