<svg xmlns="http://www.w3.org/2000/svg" xmlns:xlink="http://www.w3.org/1999/xlink" width="24" height="24" viewBox="0 0 24 24" fill="none"><path d="M12.5002 4.24952C12.4999 4.21978 12.4979 4.19016 12.4941 4.16066C12.4903 4.13117 12.4848 4.102 12.4775 4.07316C12.4702 4.04432 12.4612 4.01602 12.4506 3.98825C12.4399 3.96048 12.4277 3.93344 12.4138 3.90712C12.3999 3.8808 12.3846 3.8554 12.3677 3.83091C12.3508 3.80643 12.3326 3.78303 12.3129 3.76071C12.2932 3.73841 12.2723 3.71734 12.2501 3.69751C12.228 3.67769 12.2047 3.65925 12.1803 3.64219C12.156 3.62514 12.1307 3.60959 12.1045 3.59554C12.0782 3.5815 12.0513 3.56905 12.0236 3.55821C11.9959 3.54737 11.9677 3.53821 11.9389 3.53073C11.9101 3.52325 11.881 3.5175 11.8515 3.51348C11.8221 3.50947 11.7925 3.50722 11.7627 3.50672C11.733 3.50623 11.7033 3.5075 11.6737 3.51053C11.6441 3.51357 11.6148 3.51835 11.5858 3.52487C11.5568 3.53139 11.5283 3.53961 11.5002 3.54952L4.64023 6.01952C3.95023 6.26952 3.49023 6.92952 3.49023 7.66952L3.49023 13.7495C3.49023 14.2695 4.01023 14.6295 4.49023 14.4495L4.99023 14.2795L4.99023 15.8795C3.53023 16.3795 1.99023 15.2995 1.99023 13.7495L1.99023 7.66952C1.99023 6.29952 2.85023 5.06952 4.13023 4.60952L10.9702 2.13952C11.0126 2.12388 11.0553 2.10953 11.0985 2.09645C11.1417 2.08339 11.1852 2.07163 11.2291 2.06117C11.273 2.05073 11.3172 2.04161 11.3616 2.03381C11.4061 2.02602 11.4507 2.01957 11.4955 2.01446C11.5404 2.00935 11.5853 2.00559 11.6303 2.00319C11.6754 2.00079 11.7205 1.99974 11.7656 2.00005C11.8108 2.00036 11.8558 2.00202 11.9008 2.00504C11.9458 2.00806 11.9907 2.01243 12.0355 2.01815C12.0802 2.02387 12.1248 2.03094 12.1691 2.03934C12.2134 2.04774 12.2575 2.05747 12.3012 2.06851C12.345 2.07957 12.3884 2.09192 12.4314 2.10558C12.4744 2.11924 12.5169 2.13418 12.559 2.1504C12.6011 2.16662 12.6427 2.18409 12.6838 2.20281C12.7248 2.22153 12.7652 2.24147 12.8051 2.26263C12.845 2.28379 12.8842 2.30612 12.9227 2.32963C12.9612 2.35315 12.9989 2.3778 13.036 2.40358C13.073 2.42937 13.1092 2.45624 13.1446 2.4842C13.1801 2.51217 13.2146 2.54117 13.2483 2.57121C13.282 2.60125 13.3147 2.63228 13.3465 2.66429C13.3783 2.69631 13.4091 2.72925 13.4389 2.76311C13.4687 2.79697 13.4975 2.8317 13.5252 2.8673C13.5529 2.9029 13.5796 2.93929 13.6051 2.97649C13.6306 3.01369 13.655 3.05162 13.6783 3.09028C13.7016 3.12895 13.7236 3.16828 13.7445 3.20828C13.7654 3.24828 13.7851 3.28886 13.8035 3.33003C13.822 3.37121 13.8392 3.41291 13.8551 3.45512C13.871 3.49733 13.8857 3.53998 13.8991 3.58308C13.9124 3.62618 13.9245 3.66963 13.9353 3.71345C13.946 3.75727 13.9555 3.80138 13.9636 3.84576C13.9717 3.89015 13.9784 3.93474 13.9839 3.97953C13.9893 4.02433 13.9934 4.06924 13.9961 4.11428C13.9988 4.15932 14.0002 4.2044 14.0002 4.24952L14.0002 4.42952L12.5002 4.96952L12.5002 4.24952ZM16.5002 7.24952C16.4999 7.21978 16.4979 7.19016 16.4941 7.16066C16.4903 7.13117 16.4847 7.102 16.4774 7.07316C16.4701 7.04432 16.4612 7.01602 16.4506 6.98825C16.4399 6.96048 16.4277 6.93344 16.4138 6.90712C16.3999 6.8808 16.3846 6.8554 16.3677 6.83091C16.3508 6.80643 16.3326 6.78303 16.3129 6.76072C16.2932 6.73841 16.2723 6.71734 16.2501 6.69751C16.228 6.67769 16.2047 6.65925 16.1803 6.64219C16.156 6.62514 16.1307 6.60959 16.1045 6.59554C16.0782 6.5815 16.0513 6.56905 16.0236 6.55821C15.9959 6.54737 15.9676 6.53821 15.9389 6.53073C15.9101 6.52325 15.881 6.5175 15.8515 6.51348C15.822 6.50947 15.7924 6.50722 15.7627 6.50672C15.733 6.50623 15.7033 6.5075 15.6737 6.51053C15.6441 6.51357 15.6148 6.51835 15.5858 6.52487C15.5568 6.53139 15.5283 6.53961 15.5002 6.54952L8.32023 9.14952C7.83023 9.31952 7.50023 9.78952 7.50023 10.3195L7.50023 16.7495C7.50023 17.2695 8.02024 17.6295 8.50023 17.4495L9.00023 17.2795L9.00023 18.8695C7.54023 19.3895 6.00023 18.2995 6.00023 16.7495L6.00023 10.3195C6.00023 9.15952 6.73023 8.11952 7.81023 7.72952L14.9802 5.12952C15.0227 5.11406 15.0655 5.09988 15.1088 5.087C15.1521 5.07412 15.1958 5.06256 15.2398 5.05231C15.2838 5.04206 15.3281 5.03314 15.3726 5.02556C15.4171 5.01798 15.4619 5.01174 15.5068 5.00685C15.5517 5.00197 15.5968 4.99843 15.6419 4.99625C15.687 4.99408 15.7322 4.99327 15.7773 4.99381C15.8225 4.99435 15.8676 4.99625 15.9127 4.99951C15.9578 5.00278 16.0027 5.0074 16.0475 5.01336C16.0922 5.01933 16.1368 5.02664 16.1812 5.03529C16.2255 5.04395 16.2696 5.05393 16.3133 5.06523C16.357 5.07654 16.4004 5.08915 16.4434 5.10307C16.4864 5.11699 16.5289 5.13219 16.571 5.14867C16.6131 5.16515 16.6546 5.18288 16.6956 5.20186C16.7366 5.22084 16.777 5.24104 16.8167 5.26246C16.8565 5.28388 16.8956 5.30647 16.9341 5.33024C16.9725 5.35402 17.0102 5.37892 17.0471 5.40496C17.084 5.431 17.1201 5.45813 17.1554 5.48634C17.1907 5.51456 17.2251 5.54382 17.2586 5.5741C17.2921 5.60439 17.3247 5.63566 17.3564 5.66791C17.388 5.70017 17.4186 5.73334 17.4483 5.76744C17.4779 5.80154 17.5065 5.83649 17.5341 5.87231C17.5616 5.90813 17.5881 5.94475 17.6134 5.98216C17.6387 6.01958 17.6629 6.05772 17.6859 6.09658C17.709 6.13546 17.7308 6.17498 17.7514 6.21516C17.7721 6.25535 17.7915 6.29612 17.8097 6.33747C17.8279 6.37883 17.8448 6.4207 17.8605 6.46307C17.8762 6.50545 17.8906 6.54826 17.9037 6.5915C17.9168 6.63474 17.9285 6.67834 17.939 6.72229C17.9495 6.76625 17.9586 6.81047 17.9664 6.85497C17.9742 6.89947 17.9807 6.94417 17.9858 6.98906C17.9909 7.03396 17.9947 7.07896 17.9971 7.12407C17.9995 7.16919 18.0005 7.21434 18.0002 7.25952L18.0002 7.43952L16.5002 7.97952L16.5002 7.25952L16.5002 7.24952ZM19.5002 9.54952C19.5283 9.53961 19.5568 9.53139 19.5858 9.52487C19.6148 9.51835 19.6441 9.51357 19.6737 9.51053C19.7033 9.5075 19.733 9.50623 19.7627 9.50672C19.7924 9.50722 19.822 9.50947 19.8515 9.51348C19.881 9.5175 19.9101 9.52325 19.9389 9.53073C19.9676 9.53821 19.9959 9.54737 20.0236 9.55821C20.0513 9.56905 20.0782 9.5815 20.1045 9.59554C20.1307 9.60959 20.156 9.62514 20.1803 9.64219C20.2047 9.65925 20.228 9.67769 20.2501 9.69751C20.2723 9.71733 20.2932 9.7384 20.3129 9.76071C20.3326 9.78303 20.3508 9.80643 20.3677 9.83091C20.3846 9.8554 20.3999 9.8808 20.4138 9.90711C20.4277 9.93343 20.4399 9.96048 20.4506 9.98824C20.4612 10.016 20.4701 10.0443 20.4774 10.0731C20.4847 10.102 20.4903 10.1312 20.4941 10.1606C20.4979 10.1902 20.4999 10.2198 20.5002 10.2495L20.5002 17.0395C20.5002 17.3495 20.3002 17.6395 20.0002 17.7395L12.5002 20.4495C12.4721 20.4595 12.4436 20.4677 12.4146 20.4742C12.3856 20.4807 12.3563 20.4855 12.3267 20.4885C12.2971 20.4915 12.2674 20.4928 12.2377 20.4923C12.208 20.4919 12.1784 20.4896 12.1489 20.4855C12.1194 20.4815 12.0903 20.4758 12.0615 20.4683C12.0327 20.4609 12.0045 20.4517 11.9768 20.4408C11.9492 20.43 11.9222 20.4176 11.8959 20.4035C11.8697 20.3895 11.8445 20.3739 11.8201 20.3568C11.7957 20.3398 11.7725 20.3213 11.7503 20.3015C11.7281 20.2817 11.7072 20.2607 11.6875 20.2383C11.6679 20.216 11.6496 20.1926 11.6327 20.1681C11.6159 20.1437 11.6005 20.1183 11.5866 20.0919C11.5728 20.0656 11.5605 20.0386 11.5498 20.0108C11.5392 19.983 11.5303 19.9547 11.5229 19.9259C11.5157 19.8971 11.5101 19.8679 11.5063 19.8384C11.5025 19.8089 11.5005 19.7793 11.5002 19.7495L11.5002 12.9695C11.5002 12.6495 11.7002 12.3695 12.0002 12.2695L19.5002 9.54952ZM22.0002 10.2495C22.0001 10.2045 21.9987 10.1596 21.9959 10.1147C21.9931 10.0699 21.989 10.0251 21.9836 9.98044C21.9781 9.9358 21.9713 9.89137 21.9632 9.84714C21.9551 9.80291 21.9456 9.75896 21.9348 9.71529C21.9241 9.67163 21.912 9.62832 21.8987 9.58538C21.8853 9.54244 21.8707 9.49993 21.8548 9.45786C21.8389 9.4158 21.8217 9.37425 21.8033 9.33321C21.7849 9.29218 21.7653 9.25173 21.7445 9.21187C21.7237 9.17201 21.7017 9.1328 21.6785 9.09426C21.6553 9.05572 21.631 9.01791 21.6056 8.98082C21.5801 8.94374 21.5536 8.90745 21.526 8.87195C21.4984 8.83646 21.4697 8.80183 21.44 8.76805C21.4103 8.73428 21.3797 8.70142 21.348 8.66948C21.3163 8.63755 21.2837 8.60659 21.2502 8.57661C21.2167 8.54663 21.1823 8.51768 21.147 8.48976C21.1118 8.46184 21.0758 8.435 21.0389 8.40924C21.002 8.38349 20.9644 8.35886 20.926 8.33535C20.8877 8.31185 20.8487 8.28952 20.809 8.26836C20.7693 8.2472 20.7291 8.22724 20.6882 8.20849C20.6473 8.18975 20.6059 8.17224 20.564 8.15597C20.5221 8.13971 20.4797 8.12472 20.4368 8.11099C20.394 8.09727 20.3508 8.08484 20.3072 8.0737C20.2637 8.06257 20.2198 8.05275 20.1756 8.04425C20.1315 8.03575 20.0871 8.02857 20.0425 8.02273C19.9979 8.01689 19.9532 8.01239 19.9083 8.00923C19.8634 8.00607 19.8185 8.00425 19.7736 8.00378C19.7286 8.00332 19.6836 8.0042 19.6387 8.00643C19.5938 8.00866 19.549 8.01223 19.5043 8.01714C19.4596 8.02206 19.4151 8.02831 19.3708 8.03589C19.3265 8.04347 19.2824 8.05238 19.2386 8.0626C19.1948 8.07283 19.1513 8.08436 19.1082 8.09719C19.0651 8.11002 19.0225 8.12413 18.9802 8.13952L11.4802 10.8495C11.3722 10.8889 11.2678 10.9362 11.167 10.9916C11.0662 11.047 10.9702 11.1097 10.879 11.1797C10.7879 11.2498 10.7026 11.3264 10.6232 11.4095C10.5438 11.4927 10.4711 11.5815 10.4053 11.6757C10.3395 11.77 10.2813 11.8687 10.2305 11.9719C10.1799 12.0752 10.1374 12.1817 10.103 12.2914C10.0686 12.4012 10.0428 12.5129 10.0256 12.6265C10.0084 12.7402 9.99993 12.8545 10.0002 12.9695L10.0002 19.7495C10.0003 19.7945 10.0017 19.8395 10.0045 19.8843C10.0073 19.9292 10.0114 19.974 10.0168 20.0186C10.0223 20.0632 10.0291 20.1077 10.0372 20.1519C10.0454 20.1961 10.0548 20.2401 10.0656 20.2837C10.0764 20.3274 10.0884 20.3707 10.1017 20.4136C10.1151 20.4566 10.1298 20.4992 10.1456 20.5412C10.1616 20.5833 10.1787 20.6248 10.1971 20.6658C10.2155 20.7069 10.2351 20.7474 10.2559 20.7872C10.2768 20.827 10.2988 20.8662 10.3219 20.9048C10.3451 20.9434 10.3694 20.9812 10.3948 21.0182C10.4203 21.0553 10.4468 21.0916 10.4744 21.1271C10.502 21.1626 10.5307 21.1972 10.5604 21.231C10.5901 21.2648 10.6208 21.2976 10.6524 21.3295C10.6841 21.3615 10.7167 21.3924 10.7502 21.4224C10.7838 21.4524 10.8182 21.4814 10.8534 21.5093C10.8886 21.5372 10.9247 21.564 10.9615 21.5898C10.9984 21.6156 11.036 21.6402 11.0744 21.6637C11.1128 21.6872 11.1518 21.7095 11.1914 21.7307C11.2311 21.7519 11.2714 21.7718 11.3122 21.7905C11.3532 21.8093 11.3946 21.8269 11.4364 21.8431C11.4784 21.8594 11.5208 21.8744 11.5636 21.888C11.6064 21.9018 11.6496 21.9142 11.6932 21.9253C11.7368 21.9365 11.7806 21.9463 11.8248 21.9548C11.869 21.9633 11.9133 21.9705 11.9579 21.9763C12.0025 21.9822 12.0472 21.9867 12.0921 21.9898C12.137 21.993 12.1819 21.9948 12.2268 21.9952C12.2718 21.9957 12.3168 21.9948 12.3617 21.9926C12.4066 21.9904 12.4514 21.9869 12.4961 21.9819C12.5408 21.977 12.5853 21.9707 12.6296 21.9631C12.6739 21.9556 12.718 21.9467 12.7618 21.9364C12.8056 21.9262 12.8491 21.9147 12.8922 21.9018C12.9353 21.889 12.9779 21.8749 13.0202 21.8595L20.5202 19.1595C20.6287 19.1201 20.7334 19.0725 20.8345 19.0168C20.9356 18.9612 21.0319 18.8982 21.1234 18.8278C21.2148 18.7574 21.3003 18.6804 21.3799 18.5968C21.4594 18.5132 21.5321 18.424 21.598 18.3292C21.6639 18.2345 21.7221 18.1353 21.7726 18.0315C21.8232 17.9278 21.8656 17.8208 21.8997 17.7105C21.9338 17.6003 21.9593 17.4881 21.9761 17.3739C21.993 17.2597 22.001 17.1449 22.0002 17.0295L22.0002 10.2395L22.0002 10.2495Z"   fill="#FFFFFF" ></path></svg>