<svg xmlns="http://www.w3.org/2000/svg" xmlns:xlink="http://www.w3.org/1999/xlink" width="50" height="50" viewBox="0 0 50 50" fill="none"><path   fill-rule="evenodd"  fill="#FFFFFF"  d="M8.67 30.87C7.28563 31.3835 5.8 30.3283 5.8 28.85L5.8 15.48C5.8 14.5612 6.0566 13.7215 6.58 12.97C7.10406 12.2175 7.8013 11.6813 8.66 11.37L23.74 5.94C23.8204 5.91159 23.907 5.88866 23.99 5.87C24.0731 5.8513 24.1551 5.83 24.24 5.83C24.3248 5.83 24.4147 5.82 24.5 5.82C24.5852 5.82 24.6655 5.8285 24.75 5.84C24.8344 5.85152 24.9173 5.85851 25 5.88C25.0825 5.90151 25.1609 5.92901 25.24 5.96C25.3185 5.99074 25.4039 6.02931 25.48 6.07C25.5555 6.11053 25.6209 6.1515 25.69 6.2C25.7605 6.24934 25.8271 6.30359 25.89 6.36C25.9531 6.41643 26.0133 6.47569 26.07 6.54C26.1258 6.60323 26.181 6.67898 26.23 6.75C26.2777 6.81924 26.3198 6.88379 26.36 6.96C26.3992 7.03433 26.4386 7.11854 26.47 7.2C26.5005 7.27986 26.5293 7.35824 26.55 7.44C26.5708 7.52223 26.579 7.60467 26.59 7.69C26.6008 7.77382 26.61 7.86428 26.61 7.95L26.61 8.82L28.91 7.99L28.91 7.95C28.91 7.86191 28.9 7.77038 28.9 7.68C28.9 7.59214 28.8907 7.50915 28.88 7.42C28.8688 7.32863 28.8556 7.23565 28.84 7.15C28.8243 7.06432 28.8016 6.97852 28.78 6.89C28.7589 6.80417 28.7366 6.71624 28.71 6.63C28.6838 6.54569 28.6519 6.46487 28.62 6.38C28.5887 6.29675 28.5567 6.21175 28.52 6.13C28.4841 6.04973 28.4418 5.97 28.4 5.89C28.3579 5.8092 28.3149 5.73461 28.27 5.66C28.2238 5.58327 28.1806 5.5038 28.13 5.43C28.0807 5.35804 28.026 5.29199 27.97 5.22C27.9159 5.15034 27.8595 5.07769 27.8 5.01C27.7411 4.94305 27.6829 4.8733 27.62 4.81C27.5567 4.74618 27.4859 4.68881 27.42 4.63C27.3524 4.56965 27.2892 4.51453 27.22 4.46C27.15 4.40467 27.0729 4.3508 27 4.3C26.9255 4.24816 26.8551 4.19587 26.78 4.15C26.7039 4.10354 26.6288 4.06181 26.55 4.02C26.4705 3.97782 26.3903 3.93671 26.31 3.9C26.2287 3.86294 26.1433 3.83212 26.06 3.8C25.9765 3.76779 25.8946 3.73689 25.81 3.71C25.7251 3.68299 25.6367 3.66189 25.55 3.64C25.4641 3.61826 25.3782 3.59673 25.29 3.58C25.2028 3.56344 25.1187 3.55136 25.03 3.54C24.9414 3.52868 24.8489 3.51 24.76 3.51C24.6711 3.51 24.5793 3.5 24.49 3.5C24.4008 3.5 24.3091 3.51 24.22 3.51C24.1311 3.51 24.0487 3.51989 23.96 3.53C23.8715 3.5401 23.7779 3.55458 23.69 3.57C23.6022 3.5854 23.5168 3.59932 23.43 3.62C23.3431 3.64068 23.2552 3.66416 23.17 3.69C23.0846 3.71587 23.006 3.74822 22.92 3.78L7.87 9.21C7.22389 9.44237 6.63455 9.76887 6.09 10.19C5.55713 10.6021 5.09823 11.0844 4.71 11.64C4.32163 12.1958 4.0259 12.8047 3.82 13.45C3.60947 14.1099 3.5 14.7868 3.5 15.48L3.5 28.85C3.5 31.7875 6.31444 33.8909 9.1 33.17L9.1 30.72L8.67 30.87ZM17.48 37.47C16.0956 37.9835 14.62 36.9382 14.62 35.46L14.62 21.31C14.62 20.6219 14.808 19.9995 15.2 19.44C15.5933 18.8787 16.1135 18.481 16.75 18.26L32.54 12.54C32.6205 12.5116 32.7073 12.4886 32.79 12.47C32.8731 12.4513 32.9551 12.43 33.04 12.43C33.1248 12.43 33.2047 12.42 33.29 12.42C33.3751 12.42 33.4655 12.4285 33.55 12.44C33.6343 12.4515 33.7171 12.4685 33.8 12.49C33.8826 12.5115 33.961 12.5291 34.04 12.56C34.1185 12.5907 34.1939 12.6293 34.27 12.67C34.3455 12.7105 34.4209 12.7615 34.49 12.81C34.5605 12.8593 34.6271 12.9036 34.69 12.96C34.7532 13.0165 34.8133 13.0858 34.87 13.15C34.9258 13.2132 34.981 13.2789 35.03 13.35C35.0777 13.4193 35.1197 13.4838 35.16 13.56C35.1992 13.6343 35.2286 13.7185 35.26 13.8C35.29 13.8787 35.319 13.9571 35.34 14.04C35.3611 14.1235 35.3791 14.2059 35.39 14.29C35.4007 14.3738 35.41 14.4643 35.41 14.55L35.41 15.45L37.7 14.62L37.7 14.57C37.7 14.4793 37.7 14.3881 37.7 14.3C37.7 14.2119 37.6903 14.1201 37.68 14.03C37.68 13.9424 37.6556 13.8592 37.64 13.77C37.6244 13.6809 37.6005 13.5957 37.58 13.51C37.5587 13.4206 37.5352 13.3333 37.51 13.25C37.4841 13.1645 37.461 13.0737 37.43 12.99C37.3985 12.905 37.3655 12.8308 37.33 12.75C37.2937 12.6673 37.2507 12.5789 37.21 12.5C37.169 12.42 37.1253 12.3463 37.08 12.27C37.0351 12.194 36.9906 12.1149 36.94 12.04C36.891 11.9675 36.8352 11.9019 36.78 11.83C36.7254 11.7591 36.6685 11.6874 36.61 11.62C36.5506 11.5518 36.4917 11.483 36.43 11.42C36.3672 11.356 36.3063 11.3 36.24 11.24C36.1737 11.18 36.0995 11.1157 36.03 11.06C35.9601 11.0041 35.8929 10.9515 35.82 10.9C35.7477 10.849 35.6763 10.7973 35.6 10.75C35.5233 10.7026 35.4386 10.6623 35.36 10.62C35.2821 10.5779 35.2114 10.5377 35.13 10.5C35.0485 10.4623 34.9627 10.4224 34.88 10.39C34.7964 10.3573 34.7146 10.3274 34.63 10.3C34.5453 10.2726 34.4569 10.2525 34.37 10.23C34.2841 10.2078 34.198 10.1872 34.11 10.17C34.0223 10.1529 33.9285 10.1418 33.84 10.13C33.7512 10.1182 33.6689 10.1 33.58 10.1C33.4909 10.1 33.3993 10.09 33.31 10.09C33.2206 10.09 33.129 10.09 33.04 10.09C32.9508 10.09 32.8688 10.11 32.78 10.11C32.6909 10.11 32.5978 10.135 32.51 10.15C32.4219 10.165 32.3369 10.1797 32.25 10.2C32.1626 10.2204 32.0752 10.2446 31.99 10.27C31.9053 10.2952 31.8153 10.3289 31.73 10.36L15.97 16.08C15.4322 16.2743 14.9339 16.5485 14.48 16.9C14.0354 17.2443 13.6541 17.6463 13.33 18.11C13.0054 18.5741 12.7521 19.0715 12.58 19.61C12.4039 20.1611 12.32 20.7314 12.32 21.31L12.32 35.46C12.32 38.4204 15.1162 40.5236 17.91 39.76L17.91 37.32L17.48 37.47ZM20.77 43.29C20.77 43.2705 20.76 43.2495 20.76 43.23C20.76 43.2495 20.77 43.2705 20.77 43.29ZM20.97 43.89C20.958 43.8599 20.9415 43.8304 20.93 43.8C20.9169 43.7653 20.9023 43.735 20.89 43.7C20.9023 43.735 20.9169 43.7654 20.93 43.8C20.9415 43.8304 20.9579 43.8599 20.97 43.89ZM44.77 39.63C44.9505 39.4909 45.1126 39.3454 45.27 39.18C45.4271 39.0147 45.5697 38.8377 45.7 38.65C45.8303 38.4626 45.9504 38.2649 46.05 38.06C46.1504 37.8541 46.2327 37.6377 46.3 37.42C46.3675 37.2015 46.4169 36.9855 46.45 36.76C46.4834 36.5343 46.5 36.3087 46.5 36.08L46.5 21.15C46.5 21.0601 46.49 20.9771 46.49 20.89C46.49 20.8009 46.4807 20.7087 46.47 20.62C46.4592 20.5323 46.4461 20.4478 46.43 20.36C46.4142 20.2739 46.3915 20.1873 46.37 20.1C46.3492 20.0151 46.327 19.9271 46.3 19.84C46.2733 19.7544 46.2411 19.6723 46.21 19.59C46.179 19.5079 46.1469 19.4223 46.11 19.34C46.0736 19.2587 46.0311 19.1789 45.99 19.1C45.9489 19.0212 45.9058 18.9461 45.86 18.87C45.8141 18.7936 45.7703 18.7136 45.72 18.64C45.6692 18.5662 45.6141 18.4996 45.56 18.43C45.5061 18.3607 45.4494 18.2876 45.39 18.22C45.3301 18.1519 45.2712 18.0917 45.21 18.03C45.1471 17.9667 45.0863 17.8993 45.02 17.84C44.9539 17.7807 44.8796 17.7251 44.81 17.67C44.7397 17.6142 44.6722 17.5604 44.6 17.51C44.5266 17.4587 44.4553 17.4161 44.38 17.37C44.3041 17.3234 44.2284 17.2718 44.15 17.23C44.0705 17.1876 43.9897 17.1566 43.91 17.12C43.8291 17.0829 43.7429 17.0422 43.66 17.01C43.5775 16.9779 43.4949 16.9471 43.41 16.92C43.3253 16.8928 43.2362 16.872 43.15 16.85C43.0641 16.828 42.9775 16.8069 42.89 16.79C42.8027 16.7732 42.7181 16.7615 42.63 16.75C42.5418 16.7384 42.4486 16.72 42.36 16.72C42.2711 16.72 42.1886 16.71 42.1 16.71C42.0109 16.71 41.9187 16.72 41.83 16.72C41.7413 16.72 41.6584 16.74 41.57 16.74C41.4817 16.74 41.3875 16.755 41.3 16.77C41.2123 16.785 41.1266 16.8098 41.04 16.83C40.9531 16.8503 40.8649 16.8747 40.78 16.9C40.6956 16.9252 40.6143 16.9493 40.53 16.98L24.04 22.94C23.8272 23.0175 23.6189 23.1105 23.42 23.22C23.2205 23.3296 23.0303 23.4614 22.85 23.6C22.6699 23.7385 22.4969 23.8855 22.34 24.05C22.1829 24.2145 22.0401 24.3935 21.91 24.58C21.7799 24.7666 21.6703 24.9558 21.57 25.16C21.4699 25.3641 21.3879 25.5829 21.32 25.8C21.252 26.0173 21.194 26.2353 21.16 26.46C21.1259 26.6851 21.11 26.9126 21.11 27.14L21.11 42.06C21.11 42.1487 21.12 42.2317 21.12 42.32C21.12 42.4093 21.1393 42.5015 21.15 42.59C21.1608 42.6781 21.1739 42.7628 21.19 42.85C21.2061 42.9377 21.2188 43.0242 21.24 43.11C21.2613 43.1968 21.2837 43.285 21.31 43.37C21.3368 43.4559 21.3689 43.5376 21.4 43.62C21.4313 43.7026 21.4635 43.7885 21.5 43.87C21.5367 43.9521 21.5792 44.0319 21.62 44.11C21.6613 44.1888 21.704 44.2632 21.75 44.34C21.7956 44.4159 21.8399 44.4969 21.89 44.57C21.9405 44.6436 21.9955 44.7097 22.05 44.78C22.1039 44.8494 22.1607 44.9225 22.22 44.99C22.2783 45.0564 22.3371 45.1166 22.4 45.18C22.4617 45.2423 22.5326 45.3097 22.6 45.37C22.6669 45.4299 22.7311 45.4855 22.8 45.54C22.8691 45.5948 22.9363 45.6484 23.01 45.7C23.0819 45.7503 23.1635 45.7931 23.24 45.84C23.3152 45.8861 23.3905 45.9375 23.47 45.98C23.5473 46.0213 23.6286 46.0527 23.71 46.09C23.7931 46.1283 23.8695 46.1689 23.95 46.2C24.0339 46.2326 24.1169 46.2636 24.2 46.29C24.2845 46.3173 24.3731 46.3379 24.46 46.36C24.5454 46.382 24.6317 46.403 24.72 46.42C24.8082 46.437 24.8931 46.4487 24.98 46.46C25.0685 46.4717 25.1619 46.49 25.25 46.49C25.3391 46.49 25.4217 46.5 25.51 46.5C25.5985 46.5 25.6901 46.49 25.78 46.49C25.8707 46.49 25.9645 46.47 26.05 46.47C26.1378 46.47 26.2214 46.4552 26.31 46.44C26.398 46.4251 26.4841 46.4002 26.57 46.38C26.6583 46.3594 26.7465 46.345 26.83 46.32C26.9149 46.2947 26.9957 46.2607 27.08 46.23L43.58 40.29C43.7925 40.2127 43.9997 40.1204 44.2 40.01C44.4001 39.8999 44.5891 39.7693 44.77 39.63ZM41.58 19.07C41.4973 19.0886 41.4205 19.1116 41.34 19.14L41.33 19.14L24.85 25.13C24.4204 25.2747 24.0732 25.5313 23.81 25.9C23.5464 26.2693 23.41 26.6812 23.41 27.14L23.41 42.06C23.41 42.1454 23.4191 42.2355 23.43 42.32C23.4409 42.4049 23.4591 42.4869 23.48 42.57C23.5009 42.6519 23.5196 42.7302 23.55 42.81C23.5805 42.8895 23.6205 42.9649 23.66 43.04C23.6999 43.1161 23.7419 43.1903 23.79 43.26C23.8385 43.3305 23.8941 43.3965 23.95 43.46C24.0061 43.5239 24.0659 43.5927 24.13 43.65C24.1945 43.7077 24.2615 43.7523 24.33 43.8C24.4005 43.8497 24.4754 43.9001 24.55 43.94C24.625 43.9803 24.7008 44.0091 24.78 44.04C24.8607 44.0718 24.9385 44.099 25.02 44.12C25.1023 44.1414 25.186 44.1586 25.27 44.17C25.3561 44.182 25.4355 44.19 25.52 44.19C25.6045 44.19 25.6948 44.18 25.78 44.18C25.8644 44.18 25.9462 44.1588 26.03 44.14C26.1139 44.1211 26.1981 44.0991 26.28 44.07L42.77 38.11C43.1981 37.9658 43.5443 37.7061 43.81 37.33C44.0727 36.9583 44.2 36.5396 44.2 36.09L44.2 21.15C44.2 21.0643 44.1908 20.974 44.18 20.89C44.1692 20.806 44.1611 20.7236 44.14 20.64C44.1191 20.5573 44.0904 20.4798 44.06 20.4C44.029 20.3195 43.9893 20.2443 43.95 20.17C43.9098 20.0938 43.8677 20.0193 43.82 19.95C43.771 19.879 43.7158 19.8133 43.66 19.75C43.6033 19.6857 43.5526 19.6259 43.49 19.57C43.4266 19.5131 43.3601 19.4591 43.29 19.41C43.2205 19.3612 43.1461 19.3108 43.07 19.27C42.9944 19.2296 42.9185 19.2007 42.84 19.17C42.761 19.1391 42.6729 19.1117 42.59 19.09C42.5074 19.0685 42.4245 19.0515 42.34 19.04C42.2556 19.0285 42.1752 19.02 42.09 19.02C42.0049 19.02 41.9149 19.03 41.83 19.03C41.7452 19.03 41.6631 19.0513 41.58 19.07Z"></path></svg>